<?xml version="1.0" encoding="utf-8"?>
<!-- Generator: Adobe Illustrator 17.0.0, SVG Export Plug-In . SVG Version: 6.00 Build 0)  -->
<!DOCTYPE svg PUBLIC "-//W3C//DTD SVG 1.1//EN" "http://www.w3.org/Graphics/SVG/1.1/DTD/svg11.dtd">
<svg version="1.1" id="图层_1" xmlns="http://www.w3.org/2000/svg" xmlns:xlink="http://www.w3.org/1999/xlink" x="0px" y="0px"
	 width="24px" height="24px" viewBox="0 0 24 24" enable-background="new 0 0 24 24" xml:space="preserve">
<path fill-rule="evenodd" clip-rule="evenodd" fill="#FC7307" d="M23,24h-9c-0.552,0-1-0.448-1-1v-9c0-0.552,0.448-1,1-1h9
	c0.552,0,1,0.448,1,1v9C24,23.552,23.552,24,23,24z M23,11h-9c-0.552,0-1-0.448-1-1V1c0-0.552,0.448-1,1-1h9c0.552,0,1,0.448,1,1v9
	C24,10.552,23.552,11,23,11z M23,2c0-0.552-0.448-1-1-1h-7c-0.552,0-1,0.448-1,1v7c0,0.552,0.448,1,1,1h7c0.552,0,1-0.448,1-1V2z
	 M10,24H1c-0.552,0-1-0.448-1-1v-9c0-0.552,0.448-1,1-1h9c0.552,0,1,0.448,1,1v9C11,23.552,10.552,24,10,24z M10,11H1
	c-0.552,0-1-0.448-1-1V1c0-0.552,0.448-1,1-1h9c0.552,0,1,0.448,1,1v9C11,10.552,10.552,11,10,11z"/>
</svg>
