<?xml version="1.0" encoding="utf-8"?>
<!-- Generator: Adobe Illustrator 17.0.0, SVG Export Plug-In . SVG Version: 6.00 Build 0)  -->
<!DOCTYPE svg PUBLIC "-//W3C//DTD SVG 1.1//EN" "http://www.w3.org/Graphics/SVG/1.1/DTD/svg11.dtd">
<svg version="1.1" id="图层_1" xmlns="http://www.w3.org/2000/svg" xmlns:xlink="http://www.w3.org/1999/xlink" x="0px" y="0px"
	 width="120px" height="120px" viewBox="0 0 120 120" enable-background="new 0 0 120 120" xml:space="preserve">
<circle fill="#FE3F44" stroke="#EEEEF0" stroke-width="2" stroke-miterlimit="10" cx="60" cy="60" r="59"/>
<path fill-rule="evenodd" clip-rule="evenodd" fill="#FFFFFF" d="M79.21,72.257H65.688c0.005,1.836,0.01,1.155,0.014,2.364
	c-0.007,0.47-0.018,1.344-0.035,2.248c0.026,6.501-0.485,7.9-3.121,10.547C60.773,89.198,59.002,90,55.039,90
	c-0.113,0-0.225-0.001-0.34-0.002c-16.36-0.625-15.012-16.584-15.012-20.562c0-0.036,0-0.071,0-0.105V69.33v-2.344
	c0-2.395,1.925-4.343,4.293-4.343l0.235,0.014v-3.35c0-2.395,1.925-4.343,4.293-4.343h0.309c0.455,0.008,0.759,0.001,1.048,0.004
	v-4.621c0-2.395,1.925-4.343,4.293-4.343h1.326V31.143c0-0.631,0.505-1.143,1.13-1.143H79.21c0.625,0,1.13,0.512,1.13,1.143v39.971
	C80.34,71.745,79.834,72.257,79.21,72.257z M65.347,53.505c0.674,0,1.02-0.664,1.296-1.591H63.93
	C64.051,52.893,64.587,53.505,65.347,53.505z M56.614,72.384c-0.624,0-1.13-0.512-1.13-1.143v-1.632V58.194v-0.989l-0.041-8.916
	h-1.285c-1.121,0-2.033,0.923-2.033,2.057l0.013,15.763c0,0.035-0.003,0.094-0.007,0.128c-0.053,0.59-0.542,1.04-1.125,1.04
	c-0.006,0-0.011,0-0.015,0c-0.591-0.008-1.076-0.476-1.112-1.072C49.87,66.079,49.866,66,49.866,65.92v-8.667
	c-0.27-0.003-0.588-0.008-1.016-0.004h-0.341c-1.121,0-2.033,0.923-2.033,2.057v10.773c0,0.071-0.007,0.141-0.02,0.21
	c-0.107,0.58-0.647,0.988-1.216,0.937c-0.581-0.055-1.027-0.539-1.027-1.129v-5.154l-0.241-0.014c-1.112,0-2.024,0.923-2.024,2.057
	l0.001,1.655c0,0.044-0.001,0.296-0.001,0.88c0,0.008,0,0.008,0,0.014c0,0.002,0,0.004,0,0.007
	c0.024,4.494-1.004,17.643,12.807,18.171c3.432,0.066,4.839-0.552,6.199-1.919c2.069-2.079,2.477-3.17,2.454-8.942
	c0.017-0.893,0.028-1.717,0.035-2.213c-0.004-1.109-0.008-0.266-0.013-1.916c-0.004-0.038-0.022-0.071-0.022-0.111v-1.493
	c0-0.002-0.001-0.004-0.001-0.006s0.001-0.004,0.001-0.006V58.194c0-1.688-1.358-3.061-3.026-3.061
	c-1.668,0-2.637,1.374-2.637,3.061v11.415v1.632C57.744,71.873,57.239,72.384,56.614,72.384z M78.08,35.816
	c-0.03,0.001-0.055,0.014-0.085,0.014c-1.836,0-3.325-1.506-3.325-3.364c0.091-0.067,0.182-0.121,0.273-0.18H60.802
	c0.091,0.06,0.183,0.114,0.273,0.18c0,1.858-1.488,3.364-3.325,3.364c-0.002,0-0.005-0.001-0.007-0.001v17.819
	c0.384-0.258,0.81-0.461,1.269-0.599c0.812-0.271,1.275-0.247,2.099-0.127c0.479,0.068,0.929,0.219,1.358,0.407
	c-0.162-0.425-0.276-0.895-0.32-1.415h-1.59v-1.399h1.607c0.156-1.416,0.708-2.605,1.572-3.514l1.503,1.154
	c-0.657,0.664-1.054,1.504-1.227,2.36h2.989c0.466-1.818,1.14-3.794,3.456-3.794c1.763,0,3.318,1.171,3.542,3.794h1.555v1.399
	h-1.555c-0.138,1.801-0.847,3.147-1.797,4.073l-1.572-1.154c0.708-0.647,1.365-1.661,1.555-2.92h-3.352
	c-0.449,1.801-1.089,3.689-3.335,3.689c-0.188,0-0.368-0.024-0.547-0.056c0.447,0.78,0.711,1.68,0.711,2.648v0.05
	c-0.036,1.076-0.024,1.292,0,2.209v9.517h9.02c0.088-1.778,1.529-3.196,3.308-3.196c0.03,0,0.056,0.014,0.085,0.014V35.816z
	 M69.2,50.515h3.007c-0.173-1.206-0.881-1.696-1.555-1.696C69.874,48.82,69.494,49.554,69.2,50.515z M41.952,69.43
	c0,0.008-0.001,0.017-0.001,0.025C41.952,69.338,41.952,69.219,41.952,69.43z M41.947,69.536c0.002-0.026,0.003-0.053,0.004-0.08
	C41.95,69.556,41.949,69.648,41.947,69.536z M65.712,76.905c-0.002-0.269-0.006-1.089-0.01-2.285
	c0.003-0.175,0.005-0.303,0.007-0.342C65.714,74.137,65.716,77.327,65.712,76.905z"/>
</svg>
