<?xml version="1.0" encoding="utf-8"?>
<!-- Generator: Adobe Illustrator 17.0.0, SVG Export Plug-In . SVG Version: 6.00 Build 0)  -->
<!DOCTYPE svg PUBLIC "-//W3C//DTD SVG 1.1//EN" "http://www.w3.org/Graphics/SVG/1.1/DTD/svg11.dtd">
<svg version="1.1" id="图层_1" xmlns="http://www.w3.org/2000/svg" xmlns:xlink="http://www.w3.org/1999/xlink" x="0px" y="0px"
	 width="64px" height="64px" viewBox="0 0 64 64" enable-background="new 0 0 64 64" xml:space="preserve">
<rect fill="none" width="64" height="64"/>
<path fill-rule="evenodd" clip-rule="evenodd" fill="#4094D5" d="M32,60C16.536,60,4,47.464,4,32S16.536,4,32,4s28,12.536,28,28
	S47.464,60,32,60z M32,6C17.641,6,6,17.641,6,32s11.641,26,26,26s26-11.641,26-26S46.359,6,32,6z M32,21c-2.209,0-4-1.791-4-4
	s1.791-4,4-4s4,1.791,4,4S34.209,21,32,21z M31.5,26h1c1.381,0,2.5,1.119,2.5,2.5v23c0,1.381-1.119,2.5-2.5,2.5h-1
	c-1.381,0-2.5-1.119-2.5-2.5v-23C29,27.119,30.119,26,31.5,26z"/>
</svg>
