<?xml version="1.0" encoding="utf-8"?>
<!-- Generator: Adobe Illustrator 17.0.0, SVG Export Plug-In . SVG Version: 6.00 Build 0)  -->
<!DOCTYPE svg PUBLIC "-//W3C//DTD SVG 1.1//EN" "http://www.w3.org/Graphics/SVG/1.1/DTD/svg11.dtd">
<svg version="1.1" id="图层_1" xmlns="http://www.w3.org/2000/svg" xmlns:xlink="http://www.w3.org/1999/xlink" x="0px" y="0px"
	 width="70px" height="70px" viewBox="0 0 70 70" enable-background="new 0 0 70 70" xml:space="preserve">
<path fill-rule="evenodd" clip-rule="evenodd" fill="#3D3F3D" d="M42.29,49.584c0.022,0,0.043,0,0.063,0c0.051,0,0.158,0,0.158,0
	s0.071,0,0.099,0c0.033,0,0.061,0,0.094,0c1.536,0,3.656-1.368,6.009-3.394c0.047-0.04,0.094-0.081,0.141-0.122
	c0.017-0.014,0.038-0.035,0.055-0.051l11.259,7.354c-0.023,0.069-0.043,0.137-0.066,0.207c-0.484,1.419-1.269,2.173-2.165,3.069
	c-7.182,7.185-22.986,3.025-35.298-9.293C10.328,35.036,6.169,19.225,13.351,12.04c0.92-0.921,1.983-1.653,3.161-2.208l7.482,11.465
	c-2.145,2.401-3.584,4.547-3.584,5.983c0,5.044,2.229,8.921,8.174,14.869c5.945,5.947,14.119,7.434,14.119,7.434s-0.036,0-0.094,0
	c-0.034,0-0.065,0-0.099,0c-0.046,0-0.098,0-0.158,0C42.332,49.584,42.31,49.584,42.29,49.584c-0.055,0-0.135-0.047-0.176,0"/>
</svg>
