<?xml version="1.0" encoding="utf-8"?>
<!-- Generator: Adobe Illustrator 17.0.0, SVG Export Plug-In . SVG Version: 6.00 Build 0)  -->
<!DOCTYPE svg PUBLIC "-//W3C//DTD SVG 1.1//EN" "http://www.w3.org/Graphics/SVG/1.1/DTD/svg11.dtd">
<svg version="1.1" id="图层_1" xmlns="http://www.w3.org/2000/svg" xmlns:xlink="http://www.w3.org/1999/xlink" x="0px" y="0px"
	 width="120px" height="120px" viewBox="0 0 120 120" enable-background="new 0 0 120 120" xml:space="preserve">
<circle fill="#18D0CA" stroke="#EEEEF0" stroke-width="2" stroke-miterlimit="10" cx="60" cy="60" r="59"/>
<path fill-rule="evenodd" clip-rule="evenodd" fill="#FFFFFF" d="M77,88.5c-0.675,0-1.342-0.036-2-0.101V88.5H40
	c-9.389,0-17-7.611-17-17c0-9.389,7.611-17,17-17c0.734,0,1.454,0.056,2.164,0.146C41.422,52.738,41,50.67,41,48.5
	c0-9.389,7.611-17,17-17c9.389,0,17,7.611,17,17c0,0.036-0.005,0.071-0.006,0.108C75.655,48.542,76.322,48.5,77,48.5
	c11.046,0,20,8.954,20,20S88.046,88.5,77,88.5z M54.589,41.258l3.759,8.577c0,0-8.712,3.081-11.676,8.359s-3.405,7.186-1.859,14.18
	C48.08,87.151,69.22,85.86,66.858,85.72c-7.647-0.454-15.389-7.111-14.913-16.144c0.557-10.596,10.267-11.938,10.267-11.938
	l2.14,7.973l7.014-18.777L54.589,41.258z"/>
</svg>
