<?xml version="1.0" encoding="utf-8"?>
<!-- Generator: Adobe Illustrator 17.0.0, SVG Export Plug-In . SVG Version: 6.00 Build 0)  -->
<!DOCTYPE svg PUBLIC "-//W3C//DTD SVG 1.1//EN" "http://www.w3.org/Graphics/SVG/1.1/DTD/svg11.dtd">
<svg version="1.1" id="图层_1" xmlns="http://www.w3.org/2000/svg" xmlns:xlink="http://www.w3.org/1999/xlink" x="0px" y="0px"
	 width="70px" height="70px" viewBox="0 0 70 70" enable-background="new 0 0 70 70" xml:space="preserve">
<path fill-rule="evenodd" clip-rule="evenodd" fill="#3D3F3D" d="M58.201,18.388l-4.958,4.944l-6.61-6.592l4.957-4.943
	c0.913-0.91,2.392-0.91,3.305,0l3.305,3.296C59.114,16.002,59.114,17.478,58.201,18.388z M23.487,39.809l6.611,6.593l-8.811,2.194
	L23.487,39.809z M51.592,24.979L31.762,44.754l-6.61-6.592l19.829-19.774L51.592,24.979z M15.81,18.223v35.971h36V28.243
	l4.696-4.692v32.99c0,1.296-1.051,2.346-2.348,2.346H13.462c-1.297,0-2.348-1.05-2.348-2.346V15.877
	c0-1.295,1.051-2.346,2.348-2.346h33.149l-4.696,4.692H15.81z"/>
</svg>
