<?xml version="1.0" encoding="utf-8"?>
<!-- Generator: Adobe Illustrator 17.0.0, SVG Export Plug-In . SVG Version: 6.00 Build 0)  -->
<!DOCTYPE svg PUBLIC "-//W3C//DTD SVG 1.1//EN" "http://www.w3.org/Graphics/SVG/1.1/DTD/svg11.dtd">
<svg version="1.1" id="图层_1" xmlns="http://www.w3.org/2000/svg" xmlns:xlink="http://www.w3.org/1999/xlink" x="0px" y="0px"
	 width="120px" height="120px" viewBox="0 0 120 120" enable-background="new 0 0 120 120" xml:space="preserve">
<circle fill="#31C5A7" stroke="#EEEEF0" stroke-width="2" stroke-miterlimit="10" cx="60" cy="60" r="59"/>
<path fill-rule="evenodd" clip-rule="evenodd" fill="#FFFFFF" d="M86.716,49.447c-2.87-6.786-8.241-12.226-14.939-15.133
	C73.588,32.869,75.868,32,78.353,32C84.233,32,89,36.829,89,42.786C89,45.303,88.142,47.612,86.716,49.447z M86.281,61.377
	c0,7.073-2.741,13.483-7.182,18.251l3.676,3.724c0.486,0.493,0.787,1.174,0.787,1.926c0,1.504-1.203,2.723-2.688,2.723
	c-0.742,0-1.414-0.305-1.901-0.798l-3.948-4C70.765,86.218,65.591,88,60,88c-5.58,0-10.745-1.774-15-4.779l-3.921,3.972
	C40.587,87.692,39.907,88,39.156,88c-1.501,0-2.719-1.233-2.719-2.754c0-0.76,0.304-1.449,0.796-1.947l3.646-3.694
	c-4.429-4.765-7.161-11.166-7.161-18.228c0-14.703,11.766-26.623,26.281-26.623C74.515,34.754,86.281,46.674,86.281,61.377z
	 M69.09,68.647H58.215c-1.502,0-2.719-1.233-2.719-2.754V51.205c0-1.521,1.217-2.754,2.719-2.754c1.501,0,2.719,1.233,2.719,2.754
	v11.934h8.156c1.502,0,2.719,1.233,2.719,2.754C71.809,67.414,70.592,68.647,69.09,68.647z M33.333,49.82
	C31.876,47.946,31,45.587,31,43.016C31,36.932,35.869,32,41.875,32c2.538,0,4.867,0.888,6.717,2.363
	C41.75,37.333,36.264,42.889,33.333,49.82z"/>
</svg>
