<?xml version="1.0" encoding="utf-8"?>
<!-- Generator: Adobe Illustrator 17.0.0, SVG Export Plug-In . SVG Version: 6.00 Build 0)  -->
<!DOCTYPE svg PUBLIC "-//W3C//DTD SVG 1.1//EN" "http://www.w3.org/Graphics/SVG/1.1/DTD/svg11.dtd">
<svg version="1.1" id="图层_1" xmlns="http://www.w3.org/2000/svg" xmlns:xlink="http://www.w3.org/1999/xlink" x="0px" y="0px"
	 width="120px" height="120px" viewBox="0 0 120 120" enable-background="new 0 0 120 120" xml:space="preserve">
<circle fill="#FD1D22" stroke="#EEEEF0" stroke-width="2" stroke-miterlimit="10" cx="60" cy="60" r="59"/>
<path fill-rule="evenodd" clip-rule="evenodd" fill="#FFFFFF" d="M83.678,56.375H36.321c-1.006,0-1.821-0.812-1.821-1.813
	c0-1.001,0.815-1.812,1.821-1.812h3.643l10.929-19.938c0-1.001,0.815-1.813,1.821-1.813h3.643c1.006,0,1.821,0.811,1.821,1.813
	L47.25,52.75h25.5L61.821,32.813c0-1.001,0.815-1.813,1.821-1.813h5.464c1.006,0,1.821,0.811,1.821,1.813l9.107,19.938h3.643
	c1.006,0,1.822,0.812,1.822,1.812C85.5,55.563,84.684,56.375,83.678,56.375z M36.321,60h47.357c1.006,0,1.822,0.811,1.822,1.813
	l-3.643,25.375c0,1.001-0.815,1.813-1.821,1.813H39.964c-1.006,0-1.822-0.812-1.822-1.813L34.5,61.813
	C34.5,60.811,35.315,60,36.321,60z M70.928,81.75h3.643c1.006,0,1.821-0.811,1.821-1.812l1.821-10.875
	c0-1.001-0.816-1.813-1.821-1.813H72.75c-1.006,0-1.821,0.811-1.821,1.813l-1.821,10.875C69.107,80.938,69.923,81.75,70.928,81.75z
	 M56.357,79.938c0,1.001,0.815,1.812,1.821,1.812h3.643c1.006,0,1.821-0.811,1.821-1.812V69.063c0-1.001-0.815-1.813-1.821-1.813
	h-3.643c-1.006,0-1.821,0.811-1.821,1.813V79.938z M43.607,79.938c0,1.001,0.815,1.812,1.821,1.812h3.643
	c1.006,0,1.821-0.811,1.821-1.812l-1.821-10.875c0-1.001-0.815-1.813-1.821-1.813h-3.643c-1.006,0-1.821,0.811-1.821,1.813
	L43.607,79.938z"/>
</svg>
