<?xml version="1.0" encoding="utf-8"?>
<!-- Generator: Adobe Illustrator 17.0.0, SVG Export Plug-In . SVG Version: 6.00 Build 0)  -->
<!DOCTYPE svg PUBLIC "-//W3C//DTD SVG 1.1//EN" "http://www.w3.org/Graphics/SVG/1.1/DTD/svg11.dtd">
<svg version="1.1" id="图层_1" xmlns="http://www.w3.org/2000/svg" xmlns:xlink="http://www.w3.org/1999/xlink" x="0px" y="0px"
	 width="120px" height="120px" viewBox="0 0 120 120" enable-background="new 0 0 120 120" xml:space="preserve">
<circle fill="#ED3418" stroke="#EEEEF0" stroke-width="2" stroke-miterlimit="10" cx="60" cy="60" r="59"/>
<path fill-rule="evenodd" clip-rule="evenodd" fill="#FFFFFF" d="M80.909,90H39.091C37.936,90,37,89.133,37,88.064V31.935
	C37,30.867,37.936,30,39.091,30h33.01L83,40.899v47.165C83,89.133,82.064,90,80.909,90z M41,80h26v-2H41V80z M68.127,72.19l-5.196-3
	c0,0-1.588,7.166-0.613,7.729S68.127,72.19,68.127,72.19z M41,71h19v-2H41V71z M41,63h22v-2H41V63z M67,44H41v2h26V44z M67,53H41v2
	h26V53z M63.931,67.459c-0.276,0.478-0.112,1.09,0.366,1.366l3.464,2c0.478,0.276,1.09,0.112,1.366-0.366l11.5-19.919l-5.196-3
	L63.931,67.459z M81.761,46.576l-3.464-2c-0.478-0.276-1.09-0.112-1.366,0.366l-1,1.732l5.196,3l1-1.732
	C82.403,47.464,82.239,46.852,81.761,46.576z"/>
</svg>
