<?xml version="1.0" encoding="utf-8"?>
<!-- Generator: Adobe Illustrator 17.0.0, SVG Export Plug-In . SVG Version: 6.00 Build 0)  -->
<!DOCTYPE svg PUBLIC "-//W3C//DTD SVG 1.1//EN" "http://www.w3.org/Graphics/SVG/1.1/DTD/svg11.dtd">
<svg version="1.1" id="图层_1" xmlns="http://www.w3.org/2000/svg" xmlns:xlink="http://www.w3.org/1999/xlink" x="0px" y="0px"
	 width="24px" height="24px" viewBox="0 0 24 24" enable-background="new 0 0 24 24" xml:space="preserve">
<path fill-rule="evenodd" clip-rule="evenodd" fill="#FC7307" d="M22,24H2c-1.105,0-2-0.895-2-2V6c0-1.105,0.895-2,2-2h1v2
	c0,0.552,0.448,1,1,1h2c0.552,0,1-0.448,1-1V4h3v2c0,0.552,0.448,1,1,1h2c0.552,0,1-0.448,1-1V4h3v2c0,0.552,0.448,1,1,1h2
	c0.552,0,1-0.448,1-1V4h1c1.105,0,2,0.895,2,2v16C24,23.105,23.105,24,22,24z M4.5,8C3.672,8,3,8.672,3,9.5S3.672,11,4.5,11
	S6,10.328,6,9.5S5.328,8,4.5,8z M4.5,13C3.672,13,3,13.672,3,14.5S3.672,16,4.5,16S6,15.328,6,14.5S5.328,13,4.5,13z M4.5,18
	C3.672,18,3,18.672,3,19.5S3.672,21,4.5,21S6,20.328,6,19.5S5.328,18,4.5,18z M9.5,8C8.672,8,8,8.672,8,9.5S8.672,11,9.5,11
	S11,10.328,11,9.5S10.328,8,9.5,8z M9.5,13C8.672,13,8,13.672,8,14.5S8.672,16,9.5,16s1.5-0.672,1.5-1.5S10.328,13,9.5,13z M9.5,18
	C8.672,18,8,18.672,8,19.5S8.672,21,9.5,21s1.5-0.672,1.5-1.5S10.328,18,9.5,18z M14.5,8C13.672,8,13,8.672,13,9.5
	s0.672,1.5,1.5,1.5S16,10.328,16,9.5S15.328,8,14.5,8z M14.5,13c-0.828,0-1.5,0.672-1.5,1.5s0.672,1.5,1.5,1.5s1.5-0.672,1.5-1.5
	S15.328,13,14.5,13z M14.5,18c-0.828,0-1.5,0.672-1.5,1.5s0.672,1.5,1.5,1.5s1.5-0.672,1.5-1.5S15.328,18,14.5,18z M19.5,8
	C18.672,8,18,8.672,18,9.5s0.672,1.5,1.5,1.5S21,10.328,21,9.5S20.328,8,19.5,8z M19.5,13c-0.828,0-1.5,0.672-1.5,1.5
	s0.672,1.5,1.5,1.5s1.5-0.672,1.5-1.5S20.328,13,19.5,13z M19.5,6h-1C18.224,6,18,5.776,18,5.5v-5C18,0.224,18.224,0,18.5,0h1
	C19.776,0,20,0.224,20,0.5v5C20,5.776,19.776,6,19.5,6z M12.5,6h-1C11.224,6,11,5.776,11,5.5v-5C11,0.224,11.224,0,11.5,0h1
	C12.776,0,13,0.224,13,0.5v5C13,5.776,12.776,6,12.5,6z M5.5,6h-1C4.224,6,4,5.776,4,5.5v-5C4,0.224,4.224,0,4.5,0h1
	C5.776,0,6,0.224,6,0.5v5C6,5.776,5.776,6,5.5,6z"/>
</svg>
