<?xml version="1.0" encoding="utf-8"?>
<!-- Generator: Adobe Illustrator 17.0.0, SVG Export Plug-In . SVG Version: 6.00 Build 0)  -->
<!DOCTYPE svg PUBLIC "-//W3C//DTD SVG 1.1//EN" "http://www.w3.org/Graphics/SVG/1.1/DTD/svg11.dtd">
<svg version="1.1" id="图层_1" xmlns="http://www.w3.org/2000/svg" xmlns:xlink="http://www.w3.org/1999/xlink" x="0px" y="0px"
	 width="24px" height="24px" viewBox="0 0 24 24" enable-background="new 0 0 24 24" xml:space="preserve">
<path fill="#FC7307" d="M23,17h-9v6c0,0.552-0.448,1-1,1H1c-0.552,0-1-0.448-1-1V1c0-0.552,0.448-1,1-1h12c0.552,0,1,0.448,1,1v4h9
	c0.552,0,1,0.448,1,1v10C24,16.552,23.552,17,23,17z M6.5,22C7.328,22,8,21.328,8,20.5S7.328,19,6.5,19S5,19.672,5,20.5
	S5.672,22,6.5,22z M13,2c0-0.552-0.448-1-1-1H2C1.448,1,1,1.448,1,2v14c0,0.552,0.448,1,1,1h10c0.552,0,1-0.448,1-1V2z M14,14h5v-1
	h-5V14z M14,11h4v-1h-4V11z M22,7h-8v1h8V7z M11,16H3c-0.552,0-1-0.448-1-1V3c0-0.552,0.448-1,1-1h8c0.552,0,1,0.448,1,1v12
	C12,15.552,11.552,16,11,16z M10,4.5C10,4.224,9.776,4,9.5,4h-5C4.224,4,4,4.224,4,4.5v1C4,5.776,4.224,6,4.5,6h5
	C9.776,6,10,5.776,10,5.5V4.5z"/>
</svg>
