<?xml version="1.0" encoding="utf-8"?>
<!-- Generator: Adobe Illustrator 17.0.0, SVG Export Plug-In . SVG Version: 6.00 Build 0)  -->
<!DOCTYPE svg PUBLIC "-//W3C//DTD SVG 1.1//EN" "http://www.w3.org/Graphics/SVG/1.1/DTD/svg11.dtd">
<svg version="1.1" id="图层_1" xmlns="http://www.w3.org/2000/svg" xmlns:xlink="http://www.w3.org/1999/xlink" x="0px" y="0px"
	 width="120px" height="120px" viewBox="0 0 120 120" enable-background="new 0 0 120 120" xml:space="preserve">
<circle fill="#EE624B" stroke="#EEEEF0" stroke-width="2" stroke-miterlimit="10" cx="60" cy="60" r="59"/>
<path fill-rule="evenodd" clip-rule="evenodd" fill="#FFFFFF" d="M93.5,62.176c-0.012,0.739-0.02,1.381-0.02,1.867
	C93.48,79.459,79.148,92,61.533,92c-17.616,0-31.948-12.541-31.948-27.956c0,0-0.085-10.252-0.085-7.265
	C29.5,40.911,43.859,28,61.508,28c16.959,0,30.841,11.93,31.904,26.941C93.444,57.148,93.489,58.347,93.5,62.176z M61.533,88.538
	c12.103,0,22.438-6.547,26.546-15.734c-5.753,7.687-15.515,12.755-26.571,12.755c-10.979,0-20.68-5-26.448-12.596
	C39.22,82.074,49.505,88.538,61.533,88.538z M90.018,56.599c-0.11-13.876-12.853-25.137-28.51-25.137
	c-15.727,0-28.521,11.357-28.521,25.316c0,13.96,12.794,25.317,28.521,25.317c15.705,0,28.483-11.328,28.517-25.262
	C90.024,56.754,90.02,56.679,90.018,56.599z M70.506,63.506c0,3.18-2.022,5.978-6.451,6.636v3.308h-1.782V73.44h-1.621v-3.18
	c-3.418-0.264-5.972-1.615-7.731-3.427l2.19-2.998c1.228,1.351,3.152,2.603,5.541,2.965v-6.392
	c-3.418-0.857-7.001-2.076-7.001-6.359c0-3.361,2.721-6.029,7.001-6.392v-3.407h2.654v0.078h0.748v3.502
	c2.351,0.399,4.362,1.37,5.921,2.858l-2.19,2.866c-1.066-1.058-2.371-1.744-3.731-2.136v5.702
	C67.277,58.014,70.506,59.409,70.506,63.506z M64.054,66.675c1.743-0.489,2.47-1.672,2.47-2.806c0-1.271-1.028-1.984-2.47-2.515
	V66.675z M60.652,51.052c-1.858,0.231-3.019,1.252-3.019,2.702c0,1.285,1.261,1.944,3.019,2.471V51.052z M61.668,38.736
	c-11.786,0-21.374,8.23-21.374,18.347c0,0.299,0.008,0.596,0.025,0.891c0.052,0.954-0.685,1.771-1.646,1.822
	c-0.032,0.002-0.064,0.003-0.096,0.003c-0.919,0-1.689-0.714-1.739-1.637c-0.02-0.358-0.03-0.717-0.03-1.079
	c0-12.025,11.152-21.809,24.861-21.809c0.963,0,1.743,0.775,1.743,1.731C63.411,37.96,62.631,38.736,61.668,38.736z"/>
</svg>
