<?xml version="1.0" encoding="utf-8"?>
<!-- Generator: Adobe Illustrator 17.0.0, SVG Export Plug-In . SVG Version: 6.00 Build 0)  -->
<!DOCTYPE svg PUBLIC "-//W3C//DTD SVG 1.1//EN" "http://www.w3.org/Graphics/SVG/1.1/DTD/svg11.dtd">
<svg version="1.1" id="图层_1" xmlns="http://www.w3.org/2000/svg" xmlns:xlink="http://www.w3.org/1999/xlink" x="0px" y="0px"
	 width="120px" height="120px" viewBox="0 0 120 120" enable-background="new 0 0 120 120" xml:space="preserve">
<circle fill="#E16C10" stroke="#EEEEF0" stroke-width="2" stroke-miterlimit="10" cx="60" cy="60" r="59"/>
<path fill-rule="evenodd" clip-rule="evenodd" fill="#FFFFFF" d="M95.443,86.51c0.003-0.039,0.004-0.078,0.006-0.117
	C95.48,86.465,95.5,86.51,95.5,86.51H95.443z M82.331,83.563h-1.868c-0.188,0.826-0.528,1.59-0.978,2.276l1.27,1.27
	c0.456,0.456,0.456,1.197,0,1.653l-0.551,0.551c-0.456,0.456-1.196,0.456-1.653,0l-1.312-1.312c-0.7,0.423-1.481,0.718-2.31,0.878
	v1.827c0,0.646-0.523,1.169-1.169,1.169H72.98c-0.646,0-1.169-0.523-1.169-1.169v-1.935c-0.789-0.212-1.518-0.564-2.171-1.017
	l-1.375,1.375c-0.457,0.456-1.197,0.456-1.653,0l-0.551-0.551c-0.456-0.456-0.456-1.196,0-1.653l1.472-1.472
	c-0.374-0.657-0.633-1.383-0.78-2.15h-2.085c-0.646,0-1.169-0.523-1.169-1.169v-0.779c0-0.646,0.523-1.169,1.169-1.169h2.213
	c0.195-0.722,0.511-1.391,0.908-2.002l-1.545-1.545c-0.456-0.456-0.456-1.196,0-1.653l0.551-0.551c0.457-0.456,1.197-0.456,1.653,0
	l1.578,1.578c0.626-0.38,1.308-0.675,2.045-0.842v-2.128c0-0.646,0.523-1.169,1.169-1.169h0.779c0.646,0,1.169,0.523,1.169,1.169
	v2.128c0.763,0.173,1.476,0.474,2.122,0.873l1.424-1.424c0.456-0.457,1.197-0.457,1.653,0l0.551,0.551
	c0.456,0.457,0.456,1.197,0,1.653l-1.417,1.417c0.428,0.667,0.735,1.413,0.923,2.205h1.888c0.646,0,1.169,0.523,1.169,1.169v0.779
	C83.5,83.04,82.977,83.563,82.331,83.563z M73.5,76.42c-3.01,0-5.451,2.442-5.451,5.455c0,3.012,2.44,5.454,5.451,5.454
	s5.451-2.442,5.451-5.454C78.951,78.862,76.51,76.42,73.5,76.42z M73.5,84.213c-1.291,0-2.338-1.047-2.338-2.338
	c0-1.291,1.047-2.338,2.338-2.338c1.291,0,2.338,1.047,2.338,2.338C75.838,83.166,74.791,84.213,73.5,84.213z M74.347,46.971
	c-1.282,4.225-7.795,10.379-6.821,16.31c0.314,1.91,2.138,3.835,4.588,5.631C65.349,71.331,60.5,77.778,60.5,85.375
	c0,0.851,0.081,1.681,0.199,2.5h-0.43h-0.538H29.636c0,0-1.117-8.944,2.619-10.756c3.735-1.812,19.245-7.908,20.219-13.839
	c0.974-5.931-5.539-12.085-6.821-16.31c-0.65-2.142,0.974-3.46,0.974-3.46s-1.462-5.931,1.462-10.379
	c1.35-2.054,6.648-5.257,11.911-4.991c5.264-0.266,10.561,2.938,11.911,4.991c2.923,4.448,1.462,10.379,1.462,10.379
	S74.997,44.829,74.347,46.971z M24.652,87.522v0.353H24.5C24.5,87.875,24.555,87.753,24.652,87.522z"/>
</svg>
