<?xml version="1.0" encoding="utf-8"?>
<!-- Generator: Adobe Illustrator 17.0.0, SVG Export Plug-In . SVG Version: 6.00 Build 0)  -->
<!DOCTYPE svg PUBLIC "-//W3C//DTD SVG 1.1//EN" "http://www.w3.org/Graphics/SVG/1.1/DTD/svg11.dtd">
<svg version="1.1" id="图层_1" xmlns="http://www.w3.org/2000/svg" xmlns:xlink="http://www.w3.org/1999/xlink" x="0px" y="0px"
	 width="24px" height="24px" viewBox="0 0 24 24" enable-background="new 0 0 24 24" xml:space="preserve">
<path fill-rule="evenodd" clip-rule="evenodd" fill="#4A4948" d="M22,24H2c-1.105,0-2-0.895-2-2V6c0-1.105,0.895-2,2-2h1v1
	C1.895,5,1,5.895,1,7v14c0,1.105,0.895,2,2,2h18c1.105,0,2-0.895,2-2V7c0-1.105-0.895-2-2-2V4h1c1.105,0,2,0.895,2,2v16
	C24,23.105,23.105,24,22,24z M19.5,13c0.828,0,1.5,0.672,1.5,1.5S20.328,16,19.5,16S18,15.328,18,14.5S18.672,13,19.5,13z M19.5,11
	c-0.828,0-1.5-0.672-1.5-1.5S18.672,8,19.5,8S21,8.672,21,9.5S20.328,11,19.5,11z M19.5,6h-1C18.224,6,18,5.776,18,5.5v-5
	C18,0.224,18.224,0,18.5,0h1C19.776,0,20,0.224,20,0.5v5C20,5.776,19.776,6,19.5,6z M14,4h3v1h-3V4z M14.5,18
	c0.828,0,1.5,0.672,1.5,1.5S15.328,21,14.5,21S13,20.328,13,19.5S13.672,18,14.5,18z M14.5,13c0.828,0,1.5,0.672,1.5,1.5
	S15.328,16,14.5,16S13,15.328,13,14.5S13.672,13,14.5,13z M16,9.5c0,0.828-0.672,1.5-1.5,1.5S13,10.328,13,9.5S13.672,8,14.5,8
	S16,8.672,16,9.5z M12.5,6h-1C11.224,6,11,5.776,11,5.5v-5C11,0.224,11.224,0,11.5,0h1C12.776,0,13,0.224,13,0.5v5
	C13,5.776,12.776,6,12.5,6z M9.5,18c0.828,0,1.5,0.672,1.5,1.5S10.328,21,9.5,21S8,20.328,8,19.5S8.672,18,9.5,18z M9.5,13
	c0.828,0,1.5,0.672,1.5,1.5S10.328,16,9.5,16S8,15.328,8,14.5S8.672,13,9.5,13z M9.5,11C8.672,11,8,10.328,8,9.5S8.672,8,9.5,8
	S11,8.672,11,9.5S10.328,11,9.5,11z M7,4h3v1H7V4z M4.5,21C3.672,21,3,20.328,3,19.5S3.672,18,4.5,18S6,18.672,6,19.5
	S5.328,21,4.5,21z M4.5,16C3.672,16,3,15.328,3,14.5S3.672,13,4.5,13S6,13.672,6,14.5S5.328,16,4.5,16z M4.5,11
	C3.672,11,3,10.328,3,9.5S3.672,8,4.5,8S6,8.672,6,9.5S5.328,11,4.5,11z M5.5,6h-1C4.224,6,4,5.776,4,5.5v-5C4,0.224,4.224,0,4.5,0
	h1C5.776,0,6,0.224,6,0.5v5C6,5.776,5.776,6,5.5,6z"/>
</svg>
