<?xml version="1.0" encoding="utf-8"?>
<!-- Generator: Adobe Illustrator 17.0.0, SVG Export Plug-In . SVG Version: 6.00 Build 0)  -->
<!DOCTYPE svg PUBLIC "-//W3C//DTD SVG 1.1//EN" "http://www.w3.org/Graphics/SVG/1.1/DTD/svg11.dtd">
<svg version="1.1" id="图层_1" xmlns="http://www.w3.org/2000/svg" xmlns:xlink="http://www.w3.org/1999/xlink" x="0px" y="0px"
	 width="120px" height="120px" viewBox="0 0 120 120" enable-background="new 0 0 120 120" xml:space="preserve">
<circle fill="#F76F04" stroke="#EEEEF0" stroke-width="2" stroke-miterlimit="10" cx="60" cy="60" r="59"/>
<path fill-rule="evenodd" clip-rule="evenodd" fill="#FFFFFF" d="M60,41.711L72.762,31L91,42.972l-12.611,10.16L60,41.711z
	 M91,63.289L72.762,75.265L60,64.555l18.389-11.423L91,63.289z M47.238,75.265L29,63.289l12.61-10.157L60,64.555L47.238,75.265z
	 M29,42.972L47.238,31L60,41.711l-18.39,11.421L29,42.972z M60.039,66.858L72.837,77.54l5.477-3.6v4.036L60.039,89L41.761,77.976
	V73.94l5.477,3.6L60.039,66.858z"/>
</svg>
