<?xml version="1.0" encoding="utf-8"?>
<!-- Generator: Adobe Illustrator 17.0.0, SVG Export Plug-In . SVG Version: 6.00 Build 0)  -->
<!DOCTYPE svg PUBLIC "-//W3C//DTD SVG 1.1//EN" "http://www.w3.org/Graphics/SVG/1.1/DTD/svg11.dtd">
<svg version="1.1" id="图层_1" xmlns="http://www.w3.org/2000/svg" xmlns:xlink="http://www.w3.org/1999/xlink" x="0px" y="0px"
	 width="70px" height="70px" viewBox="0 0 70 70" enable-background="new 0 0 70 70" xml:space="preserve">
<path fill-rule="evenodd" clip-rule="evenodd" fill="none" stroke="#3D3F3D" stroke-width="2" stroke-miterlimit="10" d="M35,8
	c15.188,0,27.5,10.964,27.5,24.488c0,4.687-3.575,10.591-4.043,12.789C60.019,49.829,62.5,62,62.5,62s-12.995-7.369-16.12-7.212
	c-3.125,0.157-7.321,2.188-11.38,2.188c-15.188,0-27.5-10.964-27.5-24.488C7.5,18.964,19.812,8,35,8z"/>
<path fill-rule="evenodd" clip-rule="evenodd" fill="#3C3E3C" d="M48.125,34.767c-2.071,0-3.75-1.687-3.75-3.767
	c0-2.081,1.679-3.767,3.75-3.767c2.071,0,3.75,1.687,3.75,3.767C51.875,33.08,50.196,34.767,48.125,34.767z M35,34.767
	c-2.071,0-3.75-1.687-3.75-3.767c0-2.081,1.679-3.767,3.75-3.767s3.75,1.687,3.75,3.767C38.75,33.08,37.071,34.767,35,34.767z
	 M21.875,34.767c-2.071,0-3.75-1.687-3.75-3.767c0-2.081,1.679-3.767,3.75-3.767c2.071,0,3.75,1.687,3.75,3.767
	C25.625,33.08,23.946,34.767,21.875,34.767z"/>
</svg>
