<?xml version="1.0" encoding="utf-8"?>
<!-- Generator: Adobe Illustrator 17.0.0, SVG Export Plug-In . SVG Version: 6.00 Build 0)  -->
<!DOCTYPE svg PUBLIC "-//W3C//DTD SVG 1.1//EN" "http://www.w3.org/Graphics/SVG/1.1/DTD/svg11.dtd">
<svg version="1.1" id="图层_1" xmlns="http://www.w3.org/2000/svg" xmlns:xlink="http://www.w3.org/1999/xlink" x="0px" y="0px"
	 width="64px" height="64px" viewBox="0 0 64 64" enable-background="new 0 0 64 64" xml:space="preserve">
<rect fill="none" width="64" height="64"/>
<path fill-rule="evenodd" clip-rule="evenodd" fill="#4094D5" d="M56.99,14.37v36.95c0,0.928-0.765,1.68-1.709,1.68H9.136
	c-0.944,0-1.709-0.752-1.709-1.68V48.8H7l0.427-0.429V14.659L7.124,14.36h0.304v-1.68c0-0.928,0.765-1.68,1.709-1.68H55.28
	c0.944,0,1.709,0.752,1.709,1.68v1.68H57L56.99,14.37z M11.7,50.48h41.017c0.944,0,1.709-0.752,1.709-1.68H52.96L37.632,33.399
	l-4.362,4.288c-0.667,0.656-1.75,0.656-2.417,0l-4.646-4.567L10.603,48.8H9.991C9.991,49.728,10.756,50.48,11.7,50.48z M25.069,32
	l-0.124-0.122V32H25.069z M9.991,45.795L24.387,31.33L9.991,17.179V45.795z M52.717,13.52H11.7c-0.631,0-1.176,0.34-1.472,0.84
	h0.521l20.104,19.763c0.667,0.656,1.75,0.656,2.417,0L53.375,14.36h0.814C53.893,13.86,53.348,13.52,52.717,13.52z M39.453,31.609
	l14.973,15.045V16.89L39.453,31.609z"/>
</svg>
