<?xml version="1.0" encoding="utf-8"?>
<!-- Generator: Adobe Illustrator 17.0.0, SVG Export Plug-In . SVG Version: 6.00 Build 0)  -->
<!DOCTYPE svg PUBLIC "-//W3C//DTD SVG 1.1//EN" "http://www.w3.org/Graphics/SVG/1.1/DTD/svg11.dtd">
<svg version="1.1" id="图层_1" xmlns="http://www.w3.org/2000/svg" xmlns:xlink="http://www.w3.org/1999/xlink" x="0px" y="0px"
	 width="120px" height="120px" viewBox="0 0 120 120" enable-background="new 0 0 120 120" xml:space="preserve">
<circle fill="#8D6CEC" stroke="#EEEEF0" stroke-width="2" stroke-miterlimit="10" cx="60" cy="60" r="59"/>
<path fill-rule="evenodd" clip-rule="evenodd" fill="#FFFFFF" d="M88.094,91H31.906C30.301,91,29,89.699,29,88.094V39.656
	c0-1.605,1.301-2.906,2.906-2.906h5.812v2.906c0,3.745,3.036,6.781,6.781,6.781s6.781-3.036,6.781-6.781V36.75h17.437v2.906
	c0,3.745,3.036,6.781,6.781,6.781c3.745,0,6.781-3.036,6.781-6.781V36.75h5.813c1.605,0,2.906,1.301,2.906,2.906v48.437
	C91,89.699,89.699,91,88.094,91z M85.187,52.25H34.813v32.937h50.375V52.25z M48.177,72.317c0.504-0.596,1.096-1.146,1.776-1.65
	c0.68-0.504,1.398-1.016,2.153-1.537c0.386-0.268,0.797-0.541,1.234-0.819c0.436-0.277,0.835-0.583,1.196-0.919
	c0.361-0.336,0.663-0.713,0.907-1.133c0.243-0.42,0.365-0.898,0.365-1.436c0-0.856-0.248-1.524-0.743-2.002
	c-0.495-0.479-1.13-0.718-1.902-0.718c-0.521,0-0.961,0.122-1.322,0.365c-0.361,0.243-0.651,0.563-0.869,0.957
	c-0.218,0.395-0.374,0.831-0.466,1.31c-0.092,0.479-0.139,0.953-0.139,1.423h-3.426c-0.034-1.007,0.084-1.944,0.353-2.808
	c0.269-0.865,0.672-1.62,1.209-2.267c0.537-0.646,1.213-1.15,2.028-1.511c0.814-0.361,1.75-0.542,2.808-0.542
	c0.806,0,1.574,0.126,2.305,0.378c0.73,0.252,1.373,0.613,1.927,1.083c0.554,0.47,0.995,1.05,1.322,1.738
	c0.327,0.689,0.491,1.461,0.491,2.317c0,0.89-0.143,1.654-0.428,2.292c-0.286,0.638-0.664,1.205-1.133,1.7
	c-0.47,0.496-1.004,0.945-1.599,1.348c-0.596,0.403-1.196,0.802-1.801,1.196c-0.604,0.395-1.192,0.819-1.763,1.272
	c-0.571,0.453-1.075,0.982-1.511,1.587h8.337v3.073H46.54c0-1.024,0.147-1.914,0.441-2.67
	C47.274,73.589,47.673,72.913,48.177,72.317z M64.952,73.703c0.52,0.478,1.184,0.718,1.99,0.718c0.47,0,0.894-0.096,1.272-0.29
	c0.378-0.193,0.697-0.445,0.957-0.756c0.26-0.311,0.462-0.671,0.604-1.083c0.142-0.411,0.214-0.835,0.214-1.272
	c0-0.453-0.067-0.882-0.201-1.284c-0.134-0.403-0.336-0.756-0.604-1.058c-0.269-0.302-0.588-0.537-0.957-0.705
	c-0.37-0.168-0.798-0.252-1.285-0.252c-0.638,0-1.159,0.113-1.562,0.34c-0.403,0.227-0.781,0.584-1.133,1.07h-3.224l1.738-9.747
	h9.848v2.947H65.33l-0.705,4.005l0.05,0.05c0.487-0.487,1.007-0.835,1.562-1.045c0.554-0.21,1.184-0.315,1.889-0.315
	c0.873,0,1.645,0.16,2.317,0.479c0.671,0.319,1.238,0.747,1.7,1.285c0.462,0.538,0.814,1.171,1.058,1.902
	c0.243,0.73,0.365,1.507,0.365,2.33c0,0.907-0.176,1.751-0.529,2.531c-0.353,0.781-0.827,1.457-1.423,2.028
	c-0.596,0.571-1.289,1.012-2.078,1.322c-0.79,0.311-1.629,0.457-2.519,0.441c-0.856,0-1.675-0.113-2.456-0.34
	c-0.781-0.226-1.474-0.575-2.078-1.045c-0.604-0.47-1.087-1.053-1.448-1.75c-0.361-0.697-0.55-1.507-0.567-2.431h3.577
	C64.129,72.582,64.431,73.224,64.952,73.703z M75.5,42.563c-1.605,0-2.906-1.301-2.906-2.906v-7.75c0-1.605,1.301-2.906,2.906-2.906
	s2.906,1.301,2.906,2.906v7.75C78.406,41.261,77.105,42.563,75.5,42.563z M44.5,42.563c-1.605,0-2.906-1.301-2.906-2.906v-7.75
	c0-1.605,1.301-2.906,2.906-2.906s2.906,1.301,2.906,2.906v7.75C47.406,41.261,46.105,42.563,44.5,42.563z"/>
</svg>
