<?xml version="1.0" encoding="utf-8"?>
<!-- Generator: Adobe Illustrator 17.0.0, SVG Export Plug-In . SVG Version: 6.00 Build 0)  -->
<!DOCTYPE svg PUBLIC "-//W3C//DTD SVG 1.1//EN" "http://www.w3.org/Graphics/SVG/1.1/DTD/svg11.dtd">
<svg version="1.1" id="图层_1" xmlns="http://www.w3.org/2000/svg" xmlns:xlink="http://www.w3.org/1999/xlink" x="0px" y="0px"
	 width="120px" height="120px" viewBox="0 0 120 120" enable-background="new 0 0 120 120" xml:space="preserve">
<circle fill="#9D9F9B" stroke="#EEEEF0" stroke-width="2" stroke-miterlimit="10" cx="60" cy="60" r="59"/>
<path fill-rule="evenodd" clip-rule="evenodd" fill="#F6F4F4" d="M79.583,65.833h-13.75v13.75c0,2.992-2.425,5.417-5.417,5.417
	h-0.833c-2.992,0-5.417-2.425-5.417-5.417v-13.75h-13.75c-2.992,0-5.417-2.425-5.417-5.417v-0.833c0-2.992,2.425-5.417,5.417-5.417
	h13.75v-13.75c0-2.992,2.425-5.417,5.417-5.417h0.833c2.992,0,5.417,2.425,5.417,5.417v13.75h13.75c2.992,0,5.417,2.425,5.417,5.417
	v0.833C85,63.408,82.575,65.833,79.583,65.833z"/>
</svg>
