<?xml version="1.0" encoding="utf-8"?>
<!-- Generator: Adobe Illustrator 17.0.0, SVG Export Plug-In . SVG Version: 6.00 Build 0)  -->
<!DOCTYPE svg PUBLIC "-//W3C//DTD SVG 1.1//EN" "http://www.w3.org/Graphics/SVG/1.1/DTD/svg11.dtd">
<svg version="1.1" id="图层_1" xmlns="http://www.w3.org/2000/svg" xmlns:xlink="http://www.w3.org/1999/xlink" x="0px" y="0px"
	 width="64px" height="64px" viewBox="0 0 64 64" enable-background="new 0 0 64 64" xml:space="preserve">
<rect fill="none" width="64" height="64"/>
<path fill-rule="evenodd" clip-rule="evenodd" fill="#4094D5" d="M56.648,54.5H10.352c-1.023,0-1.852-0.821-1.852-1.833v-6.875l0,0
	c0-0.506,0.415-0.917,0.926-0.917c0.511,0,0.926,0.41,0.926,0.917v5.042c0,1.013,0.829,1.833,1.852,1.833h42.593
	c1.023,0,1.852-0.821,1.852-1.833V14.167c0-1.013-0.829-1.833-1.852-1.833H12.204c-1.023,0-1.852,0.821-1.852,1.833v4.125
	c0,0.506-0.415,0.917-0.926,0.917c-0.511,0-0.926-0.41-0.926-0.917l0,0v-5.958c0-1.012,0.829-1.833,1.852-1.833h46.296
	c1.023,0,1.852,0.821,1.852,1.833v40.333C58.5,53.679,57.671,54.5,56.648,54.5z M33.079,28.785l-5.657-5.657l-1.414-1.414
	l1.414-1.414l11.314,11.314L27.423,42.927l-1.414-1.414l1.414-1.414l4.95-4.95l2.649-2.649H7c-0.276,0-0.5-0.224-0.5-0.5v-1
	c0-0.276,0.224-0.5,0.5-0.5h27.794L33.079,28.785z"/>
</svg>
