<?xml version="1.0" encoding="utf-8"?>
<!-- Generator: Adobe Illustrator 17.0.0, SVG Export Plug-In . SVG Version: 6.00 Build 0)  -->
<!DOCTYPE svg PUBLIC "-//W3C//DTD SVG 1.1//EN" "http://www.w3.org/Graphics/SVG/1.1/DTD/svg11.dtd">
<svg version="1.1" id="图层_1" xmlns="http://www.w3.org/2000/svg" xmlns:xlink="http://www.w3.org/1999/xlink" x="0px" y="0px"
	 width="24px" height="24px" viewBox="0 0 24 24" enable-background="new 0 0 24 24" xml:space="preserve">
<path fill-rule="evenodd" clip-rule="evenodd" fill="#4A4948" d="M10,22v-1h14v1H10z M10,17h14v1H10V17z M10,13h14v1H10V13z M10,9
	h14v1H10V9z M10,5h14v1H10V5z M10,1h14v1H10V1z M7,24H1c-0.552,0-1-0.448-1-1v-4c0-0.552,0.448-1,1-1h6c0.552,0,1,0.448,1,1v4
	C8,23.552,7.552,24,7,24z M7,20c0-0.552-0.448-1-1-1H2c-0.552,0-1,0.448-1,1v2c0,0.552,0.448,1,1,1h4c0.552,0,1-0.448,1-1V20z M7,15
	H1c-0.552,0-1-0.448-1-1v-4c0-0.552,0.448-1,1-1h6c0.552,0,1,0.448,1,1v4C8,14.552,7.552,15,7,15z M7,11c0-0.552-0.448-1-1-1H2
	c-0.552,0-1,0.448-1,1v2c0,0.552,0.448,1,1,1h4c0.552,0,1-0.448,1-1V11z M7,6H1C0.448,6,0,5.552,0,5V1c0-0.552,0.448-1,1-1h6
	c0.552,0,1,0.448,1,1v4C8,5.552,7.552,6,7,6z M7,2c0-0.552-0.448-1-1-1H2C1.448,1,1,1.448,1,2v2c0,0.552,0.448,1,1,1h4
	c0.552,0,1-0.448,1-1V2z"/>
</svg>
