<?xml version="1.0" encoding="utf-8"?>
<!-- Generator: Adobe Illustrator 17.0.0, SVG Export Plug-In . SVG Version: 6.00 Build 0)  -->
<!DOCTYPE svg PUBLIC "-//W3C//DTD SVG 1.1//EN" "http://www.w3.org/Graphics/SVG/1.1/DTD/svg11.dtd">
<svg version="1.1" id="图层_1" xmlns="http://www.w3.org/2000/svg" xmlns:xlink="http://www.w3.org/1999/xlink" x="0px" y="0px"
	 width="24px" height="24px" viewBox="0 0 24 24" enable-background="new 0 0 24 24" xml:space="preserve">
<path fill-rule="evenodd" clip-rule="evenodd" fill="#4A4948" d="M23,17h-9v6c0,0.552-0.448,1-1,1H1c-0.552,0-1-0.448-1-1V1
	c0-0.552,0.448-1,1-1h12c0.552,0,1,0.448,1,1v4h9c0.552,0,1,0.448,1,1v10C24,16.552,23.552,17,23,17z M13,17V5V2
	c0-0.552-0.448-1-1-1H2C1.448,1,1,1.448,1,2v20c0,0.552,0.448,1,1,1h10c0.552,0,1-0.448,1-1V17z M23,7c0-0.552-0.448-1-1-1h-8v10h8
	c0.552,0,1-0.448,1-1V7z M15,7h7v1h-7V7z M20,11h-5v-1h5V11z M21,14h-6v-1h6V14z M11,18H3c-0.552,0-1-0.448-1-1V5
	c0-0.552,0.448-1,1-1h8c0.552,0,1,0.448,1,1v12C12,17.552,11.552,18,11,18z M11,6c0-0.552-0.448-1-1-1H4C3.448,5,3,5.448,3,6v10
	c0,0.552,0.448,1,1,1h6c0.552,0,1-0.448,1-1V6z M4,2h6v1H4V2z M6.5,19C7.328,19,8,19.672,8,20.5S7.328,22,6.5,22S5,21.328,5,20.5
	S5.672,19,6.5,19z"/>
</svg>
