<?xml version="1.0" encoding="utf-8"?>
<!-- Generator: Adobe Illustrator 17.0.0, SVG Export Plug-In . SVG Version: 6.00 Build 0)  -->
<!DOCTYPE svg PUBLIC "-//W3C//DTD SVG 1.1//EN" "http://www.w3.org/Graphics/SVG/1.1/DTD/svg11.dtd">
<svg version="1.1" id="图层_1" xmlns="http://www.w3.org/2000/svg" xmlns:xlink="http://www.w3.org/1999/xlink" x="0px" y="0px"
	 width="120px" height="120px" viewBox="0 0 120 120" enable-background="new 0 0 120 120" xml:space="preserve">
<circle fill="#FF7C14" stroke="#EEEEF0" stroke-width="2" stroke-miterlimit="10" cx="60" cy="60" r="59"/>
<path fill-rule="evenodd" clip-rule="evenodd" fill="#FFFFFF" d="M87.041,87.889l-0.53,0.53c-1.025,1.025-2.964,0.748-4.331-0.619
	L64.502,70.123c-0.083-0.083-0.148-0.173-0.223-0.26c-3.189,1.953-6.925,3.098-10.938,3.098c-11.598,0-21-9.402-21-21
	s9.402-21,21-21c11.598,0,21,9.402,21,21c0,5.421-2.072,10.346-5.444,14.071l17.525,17.525
	C87.789,84.925,88.066,86.864,87.041,87.889z M49.513,36.656c-0.204-0.762-0.987-1.214-1.75-1.01
	c-7.24,1.94-11.536,9.382-9.597,16.622c0.204,0.762,0.988,1.214,1.75,1.01c0.762-0.204,1.214-0.987,1.01-1.75
	c-1.532-5.716,1.86-11.591,7.576-13.122C49.265,38.201,49.718,37.418,49.513,36.656z M60.136,47.184
	c-0.498-1.24-1.375-2.028-2.629-2.364l0.584-2.179l-1.549-0.415l-0.584,2.179c-1.297-0.182-2.448,0.062-3.459,0.733
	c-1.01,0.672-1.7,1.695-2.069,3.072c-0.287,1.071-0.28,2.076,0.022,3.017c0.3,0.941,1.204,2.147,2.709,3.614l-1.997,7.454
	c-0.37-0.099-0.747-0.465-1.128-1.101c-0.384-0.635-0.319-1.908,0.193-3.82l-2.546-0.682c-0.594,2.218-0.575,3.985,0.062,5.302
	c0.635,1.318,1.579,2.144,2.835,2.48l-0.768,2.867l1.549,0.415l0.768-2.867c1.032,0.277,2.151,0.085,3.357-0.575
	c1.204-0.661,2.074-1.983,2.606-3.972c0.369-1.376,0.233-2.642-0.406-3.796c-0.64-1.155-1.469-2.195-2.485-3.124L56.923,47
	c0.368,0.099,0.689,0.451,0.962,1.057c0.271,0.607,0.255,1.482-0.052,2.629l2.435,0.652C60.678,49.809,60.634,48.424,60.136,47.184z
	 M52.733,50.24c-0.088-0.556-0.061-1.101,0.083-1.637c0.225-0.84,0.597-1.417,1.116-1.729c0.517-0.311,0.999-0.408,1.442-0.29
	l-1.475,5.505C53.209,51.412,52.821,50.798,52.733,50.24z M55.504,58.05c0.225,0.634,0.225,1.372,0,2.212
	c-0.307,1.147-0.734,1.853-1.279,2.116c-0.546,0.265-1.05,0.375-1.513,0.332l1.751-6.537C54.931,56.79,55.277,57.417,55.504,58.05z"
	/>
</svg>
