<?xml version="1.0" encoding="utf-8"?>
<!-- Generator: Adobe Illustrator 17.0.0, SVG Export Plug-In . SVG Version: 6.00 Build 0)  -->
<!DOCTYPE svg PUBLIC "-//W3C//DTD SVG 1.1//EN" "http://www.w3.org/Graphics/SVG/1.1/DTD/svg11.dtd">
<svg version="1.1" id="图层_1" xmlns="http://www.w3.org/2000/svg" xmlns:xlink="http://www.w3.org/1999/xlink" x="0px" y="0px"
	 width="120px" height="120px" viewBox="0 0 120 120" enable-background="new 0 0 120 120" xml:space="preserve">
<circle fill="#28D22B" stroke="#EEEEF0" stroke-width="2" stroke-miterlimit="10" cx="60" cy="60" r="59"/>
<path fill-rule="evenodd" clip-rule="evenodd" fill="#FFFFFF" d="M73.006,95.591c-0.554,0.566-19.264,0-19.264,0
	c-5.739-11.719-9.469-16.909-10.506-22.254c-1.507-7.771-2.056-11.399,2.57-9.54c1.267,0.509,1.951,0.875,2.483,2.987
	c0.991,3.938,3.585,8.984,3.585,8.984l0.319-1.147c-0.059-2.73-0.136-8.973-0.075-15.198c-7.475-2.188-12.939-9.084-12.939-17.266
	c0-9.941,8.059-18,18-18s18,8.059,18,18c0,3.68-1.109,7.099-3.005,9.949c0.918,0.975,1.688,2.768,1.935,5.226
	c0.325,3.242,0.196,10.736,0.196,10.736h1.301c0,0-0.264-4.682,0-6.553c1.478-10.481,5.203-3.358,5.203,0
	c0,2.541,0.013,6.18-0.041,6.55C80.701,68.545,82.18,86.208,73.006,95.591z M66.502,66.758h1.301c0.104-1.567-0.082-6.185,0-9.174
	c0.01-0.347,0.04-0.649,0.063-0.966c-0.446,0.33-0.908,0.639-1.384,0.928C66.438,61.332,66.502,66.758,66.502,66.758z
	 M59.999,66.758c-0.07-0.446-0.114-3.96-0.098-6.828c-0.378,0.058-0.755,0.114-1.141,0.147c-0.023,3.753-0.062,6.68-0.062,6.68
	H59.999z M59.999,56.273c0.159-1.239,0.363-2.241,0.597-3.058c-0.587,0.181-1.198,0.305-1.821,0.391
	c0.003,1.294,0.002,2.612-0.002,3.898c0.395-0.041,0.782-0.108,1.168-0.178C59.955,56.842,59.974,56.463,59.999,56.273z
	 M52.523,47.317c0.872-11.16,5.88-10.73,6.174-0.218c0.031,1.12,0.051,2.465,0.063,3.911c4.215-0.748,7.419-4.423,7.419-8.853
	c0-4.97-4.03-9-9-9c-4.971,0-9,4.029-9,9c0,3.201,1.676,6.004,4.192,7.599C52.417,48.887,52.466,48.057,52.523,47.317z
	 M57.18,26.729c-8.521,0-15.429,6.908-15.429,15.428c0,6.759,4.353,12.489,10.403,14.575c0.024-1.416,0.056-2.8,0.099-4.116
	c-3.924-1.852-6.646-5.832-6.646-10.459c0-6.391,5.181-11.571,11.571-11.571s11.571,5.181,11.571,11.571
	c0,3.636-1.68,6.876-4.303,8.998c0.8,0.846,1.478,2.184,1.818,3.451c3.838-2.807,6.342-7.33,6.342-12.449
	C72.609,33.636,65.701,26.729,57.18,26.729z"/>
</svg>
