<?xml version="1.0" encoding="utf-8"?>
<!-- Generator: Adobe Illustrator 17.0.0, SVG Export Plug-In . SVG Version: 6.00 Build 0)  -->
<!DOCTYPE svg PUBLIC "-//W3C//DTD SVG 1.1//EN" "http://www.w3.org/Graphics/SVG/1.1/DTD/svg11.dtd">
<svg version="1.1" id="图层_1" xmlns="http://www.w3.org/2000/svg" xmlns:xlink="http://www.w3.org/1999/xlink" x="0px" y="0px"
	 width="120px" height="120px" viewBox="0 0 120 120" enable-background="new 0 0 120 120" xml:space="preserve">
<circle fill="#096BA9" stroke="#EEEEF0" stroke-width="2" stroke-miterlimit="10" cx="60" cy="60" r="59"/>
<path fill-rule="evenodd" clip-rule="evenodd" fill="#FFFFFF" d="M80.214,76.454l-0.707,0.707c-0.976,0.976-2.559,0.976-3.535,0
	l-0.552-0.552v11.184c0,1.771-1.437,3.207-3.209,3.207H42.262c-1.772,0-3.209-1.436-3.209-3.207V32.207
	c0-1.771,1.437-3.207,3.209-3.207h29.948c1.772,0,3.209,1.436,3.209,3.207v35.917l4.795,4.795
	C81.191,73.895,81.191,75.478,80.214,76.454z M57.236,87.793c1.181,0,2.139-0.957,2.139-2.138s-0.958-2.138-2.139-2.138
	c-1.181,0-2.139,0.957-2.139,2.138S56.055,87.793,57.236,87.793z M71.141,35.414H43.332h-1.069V80.31h1.069h27.809h1.07V73.4
	l-4.017-4.017c-0.855-0.855-0.961-2.176-0.318-3.146l-4.816-4.816c-4.317,3.599-10.763,3.379-14.813-0.671
	c-4.289-4.289-4.289-11.268,0-15.557c4.289-4.289,11.267-4.289,15.556,0c1.898,1.898,3.006,4.371,3.185,7.025l-0.003,1.574
	c-0.169,2.297-1.035,4.454-2.507,6.218l4.848,4.848c0.892-0.582,2.042-0.543,2.885,0.126v-29.57H71.141z M64.792,53.627l0.003-1.259
	c-0.143-2.123-1.029-4.101-2.548-5.62c-3.431-3.431-9.014-3.431-12.445,0c-3.431,3.431-3.431,9.014,0,12.445
	c3.431,3.431,9.014,3.431,12.445,0C63.753,57.687,64.637,55.73,64.792,53.627z M54.859,48.879c-0.323,0.107-0.575,0.212-0.794,0.331
	c-2.596,1.407-3.169,4.839-1.361,8.161c0.203,0.373,0.102,0.757-0.227,0.857c-0.328,0.1-0.763-0.123-0.962-0.495
	c-2.17-3.989-1.483-8.11,1.635-9.8c0.27-0.146,0.572-0.273,0.951-0.398c0.296-0.098,0.683,0.072,0.907,0.385
	c0.021,0.03,0.041,0.061,0.059,0.093C55.276,48.384,55.183,48.772,54.859,48.879z"/>
</svg>
