<?xml version="1.0" encoding="utf-8"?>
<!-- Generator: Adobe Illustrator 17.0.0, SVG Export Plug-In . SVG Version: 6.00 Build 0)  -->
<!DOCTYPE svg PUBLIC "-//W3C//DTD SVG 1.1//EN" "http://www.w3.org/Graphics/SVG/1.1/DTD/svg11.dtd">
<svg version="1.1" id="图层_1" xmlns="http://www.w3.org/2000/svg" xmlns:xlink="http://www.w3.org/1999/xlink" x="0px" y="0px"
	 width="120px" height="120px" viewBox="0 0 120 120" enable-background="new 0 0 120 120" xml:space="preserve">
<circle fill="#098DE9" stroke="#EEEEF0" stroke-width="2" stroke-miterlimit="10" cx="60" cy="60" r="59"/>
<path fill-rule="evenodd" clip-rule="evenodd" fill="#FFFFFF" d="M89,87H31c-1.657,0-3-1.343-3-3V36c0-1.657,1.343-3,3-3
	c1.657,0,3,1.343,3,3v38h0v7h55c1.657,0,3,1.343,3,3C92,85.657,90.657,87,89,87z M82,78h-6c-1.657,0-3-1.343-3-3V54
	c0-1.657,1.343-3,3-3h6c1.657,0,3,1.343,3,3v21C85,76.657,83.657,78,82,78z M65,78h-6c-1.657,0-3-1.343-3-3V42c0-1.657,1.343-3,3-3
	h6c1.657,0,3,1.343,3,3v33C68,76.657,66.657,78,65,78z M48,78h-6c-1.657,0-3-1.343-3-3v-6c0-1.657,1.343-3,3-3h6
	c1.657,0,3,1.343,3,3v6C51,76.657,49.657,78,48,78z"/>
</svg>
