<?xml version="1.0" encoding="utf-8"?>
<!-- Generator: Adobe Illustrator 17.0.0, SVG Export Plug-In . SVG Version: 6.00 Build 0)  -->
<!DOCTYPE svg PUBLIC "-//W3C//DTD SVG 1.1//EN" "http://www.w3.org/Graphics/SVG/1.1/DTD/svg11.dtd">
<svg version="1.1" id="图层_1" xmlns="http://www.w3.org/2000/svg" xmlns:xlink="http://www.w3.org/1999/xlink" x="0px" y="0px"
	 width="120px" height="120px" viewBox="0 0 120 120" enable-background="new 0 0 120 120" xml:space="preserve">
<circle fill="#0BABF5" stroke="#EEEEF0" stroke-width="2" stroke-miterlimit="10" cx="60" cy="60" r="59"/>
<path fill-rule="evenodd" clip-rule="evenodd" fill="#FFFFFF" d="M39.812,86C29.975,86,22,78.063,22,68.273
	c0-7.986,5.308-14.735,12.603-16.953C38.568,41.192,48.419,34,60,34c11.581,0,21.432,7.192,25.397,17.32
	C92.692,53.538,98,60.286,98,68.273C98,78.063,90.025,86,80.188,86 M47.5,62.058c0.984,0,1.874,0.397,2.519,1.039l0,0l6.472,6.441
	l10.612-15.362c0.639-0.948,1.726-1.572,2.96-1.572c1.967,0,3.563,1.587,3.563,3.545c0,0.754-0.237,1.453-0.64,2.028L59.96,77.032
	c-0.639,0.948-1.726,1.572-2.96,1.572c-0.984,0-1.874-0.397-2.519-1.038l0,0l-9.5-9.455l0,0c-0.645-0.641-1.044-1.528-1.044-2.507
	C43.938,63.646,45.532,62.058,47.5,62.058z"/>
</svg>
