<?xml version="1.0" encoding="utf-8"?>
<!-- Generator: Adobe Illustrator 17.0.0, SVG Export Plug-In . SVG Version: 6.00 Build 0)  -->
<!DOCTYPE svg PUBLIC "-//W3C//DTD SVG 1.1//EN" "http://www.w3.org/Graphics/SVG/1.1/DTD/svg11.dtd">
<svg version="1.1" id="图层_1" xmlns="http://www.w3.org/2000/svg" xmlns:xlink="http://www.w3.org/1999/xlink" x="0px" y="0px"
	 width="120px" height="120px" viewBox="0 0 120 120" enable-background="new 0 0 120 120" xml:space="preserve">
<circle fill="#EE624B" stroke="#EEEEF0" stroke-width="2" stroke-miterlimit="10" cx="60" cy="60" r="59"/>
<path fill-rule="evenodd" clip-rule="evenodd" fill="#FFFFFF" d="M80.714,53.095c-0.099,0.024-0.197,0.035-0.294,0.035
	c-0.567,0-1.081-0.384-1.219-0.955c-0.583-2.41-5.015-3.367-6.707-3.705c-0.482,0.942-1.458,1.595-2.595,1.595
	c-0.708,0-1.348-0.26-1.854-0.676c0.156,0.155,0.316,0.314,0.493,0.503c0.231,0.191,0.446,0.374,0.639,0.548
	c0.021,0.018,0.042,0.037,0.062,0.056l0,0.001c1.655,1.572,9.449,9.714,12.27,17.18c2.323,6.151,2.487,8.67,2.456,10.724
	c-0.043,2.833-0.158,10.355-13.514,10.499c-7.422,0.082-8.935,0.13-20.871-0.046c-13.38-0.197-13.497-7.647-13.541-10.452
	c-0.032-2.054,0.131-4.575,2.457-10.725c2.348-6.216,6.498-12.337,12.334-17.24c0.166-0.14,0.341-0.34,0.521-0.595
	c0.284-0.59,0.416-1.188,0.434-1.787c-0.313,0.063-0.625,0.114-0.939,0.184c-0.621,0.136-1.238-0.249-1.378-0.865
	c-0.14-0.617,0.251-1.23,0.872-1.368c0.342-0.076,0.679-0.132,1.02-0.2c-0.688-1.814-2.076-3.515-3.153-4.83
	c-0.235-0.286-0.453-0.553-0.646-0.798c-1.409-1.515-1.934-3.952-2.158-5.2c-0.03-0.172-0.052-0.301-0.07-0.373l-0.09-0.315
	c-0.629-2.216-0.654-2.302-0.272-2.802c0.218-0.286,0.566-0.458,0.928-0.458c0.639,0,0.949,0.454,1.154,0.755
	c0.264,0.386,0.465,0.632,0.597,0.733c0.2-0.045,0.51-0.07,0.874-0.07c0.87,0,1.948,0.143,3.196,0.309
	c1.326,0.176,2.829,0.376,4.209,0.404c0.002,0,0.004,0,0.006,0c1.418,0,2.472-0.441,3.588-0.909c1.253-0.525,2.563-1.07,4.178-0.955
	c2.029,0.144,3.481,1.169,4.763,2.073c0.689,0.486,1.339,0.945,2.021,1.233c0.811,0.34,2.066-0.007,2.968-0.309
	c0.544-0.182,0.973-0.325,1.394-0.325c0.543,0,0.882,0.239,1.069,0.438c0.939,0.478,0.575,1.502,0.451,1.85
	c-0.081,0.226-0.203,0.57-0.377,1.102c-0.628,1.926-3.664,4.013-6.85,6.505c-0.29,0.226-0.51,0.397-0.629,0.498
	c-0.166,0.14-0.493,0.453-0.799,0.905c0.535-0.607,1.313-0.999,2.19-0.999c0.995,0,1.872,0.497,2.399,1.251
	c0.924-0.653,2.496-2.253,2.634-2.899c0.139-0.655,0.778-1.124,1.446-1.015c0.664,0.111,1.129,0.68,1.043,1.343
	c-0.129,0.994-1.211,2.417-2.419,3.542c2.55,0.692,5.912,2.089,6.641,5.104C81.803,52.262,81.388,52.934,80.714,53.095z
	 M67.088,47.982c0.06,0.329,0.182,0.552,0.387,0.8c-0.163-0.239-0.278-0.51-0.363-0.793C67.104,47.987,67.096,47.985,67.088,47.982z
	 M67.3,70.055c0,2.518-1.564,5.122-5.732,5.599v2.656h-0.466v0.021h-1.924v-2.609c-2.957-0.174-5.11-1.395-6.574-3.051l1.464-1.86
	c1.113,1.308,2.797,2.47,5.11,2.731v-7.061c-2.986-0.814-5.959-1.801-5.959-5.376c0-2.993,2.446-5.114,5.959-5.376v-2.585h1.117
	V53.12h1.273v2.718c2.204,0.287,3.955,1.212,5.293,2.594l-1.464,1.773c-1.058-1.155-2.371-1.837-3.83-2.134v6.364
	C64.439,65.266,67.3,66.444,67.3,70.055z M61.567,73.489c2.405-0.423,3.215-1.949,3.215-3.259c0-1.742-1.387-2.542-3.215-3.135
	V73.489z M59.177,57.909c-2.079,0.145-3.441,1.366-3.441,3.051c0,1.598,1.45,2.296,3.441,2.877V57.909z"/>
</svg>
