<?xml version="1.0" encoding="utf-8"?>
<!-- Generator: Adobe Illustrator 17.0.0, SVG Export Plug-In . SVG Version: 6.00 Build 0)  -->
<!DOCTYPE svg PUBLIC "-//W3C//DTD SVG 1.1//EN" "http://www.w3.org/Graphics/SVG/1.1/DTD/svg11.dtd">
<svg version="1.1" id="图层_1" xmlns="http://www.w3.org/2000/svg" xmlns:xlink="http://www.w3.org/1999/xlink" x="0px" y="0px"
	 width="64px" height="64px" viewBox="0 0 64 64" enable-background="new 0 0 64 64" xml:space="preserve">
<rect fill="none" width="64" height="64"/>
<path fill-rule="evenodd" clip-rule="evenodd" fill="#4094D5" d="M53,59H11c-1.105,0-2-0.895-2-2V33c0-1.105,0.895-2,2-2h5V20.5
	C16,11.94,22.94,5,31.5,5h1C41.06,5,48,11.94,48,20.5V31h5c1.105,0,2,0.895,2,2v24C55,58.105,54.105,59,53,59z M44.8,21.1
	c0-6.793-5.507-12.3-12.3-12.3h-1c-6.793,0-12.3,5.507-12.3,12.3V31h25.6V21.1z M53,35.217c0-1.105-0.895-2-2-2H13
	c-1.105,0-2,0.895-2,2v20c0,1.105,0.895,2,2,2h38c1.105,0,2-0.895,2-2V35.217z M32.99,43.451C32.991,43.468,33,43.482,33,43.5v10
	c0,0.828-0.672,1.5-1.5,1.5h-1c-0.828,0-1.5-0.672-1.5-1.5v-10c0-0.018,0.009-0.032,0.01-0.049C27.814,42.759,27,41.481,27,40
	c0-2.209,1.791-4,4-4c2.209,0,4,1.791,4,4C35,41.481,34.186,42.759,32.99,43.451z"/>
</svg>
